HIERARCHY
ROOT hip
{
  OFFSET 0 0 0
  CHANNELS 6 Xposition Yposition Zposition Zrotation Yrotation Xrotation
  JOINT abdomen
  {
    OFFSET 0 20.6881 -0.73152
    CHANNELS 3 Zrotation Xrotation Yrotation
    JOINT chest
    {
      OFFSET 0 11.7043 -0.48768
      CHANNELS 3 Zrotation Xrotation Yrotation
      JOINT neck
      {
        OFFSET 0 22.1894 -2.19456
        CHANNELS 3 Zrotation Xrotation Yrotation
        JOINT head
        {
          OFFSET -0.24384 7.07133 1.2192
          CHANNELS 3 Zrotation Xrotation Yrotation
          JOINT leftEye
          {
            OFFSET 4.14528 8.04674 8.04672
            CHANNELS 3 Zrotation Xrotation Yrotation
            End Site
            {
              OFFSET 1 0 0
            }
          }
          JOINT rightEye
          {
            OFFSET -3.6576 8.04674 8.04672
            CHANNELS 3 Zrotation Xrotation Yrotation
            End Site
            {
              OFFSET 1 0 0
            }
          }
        }
      }
      JOINT rCollar
      {
        OFFSET -2.68224 19.2634 -4.8768
        CHANNELS 3 Zrotation Xrotation Yrotation
        JOINT rShldr
        {
          OFFSET -8.77824 -1.95073 1.46304
          CHANNELS 3 Zrotation Xrotation Yrotation
          JOINT rForeArm
          {
            OFFSET -28.1742 -1.7115 0.48768
            CHANNELS 3 Zrotation Xrotation Yrotation
            JOINT rHand
            {
              OFFSET -22.5879 0.773209 7.07136
              CHANNELS 3 Zrotation Xrotation Yrotation
              JOINT rThumb1
              {
                OFFSET -1.2192 -0.487915 3.41376
                CHANNELS 3 Zrotation Xrotation Yrotation
                JOINT rThumb2
                {
                  OFFSET -3.37035 -0.52449 3.41376
                  CHANNELS 3 Zrotation Xrotation Yrotation
                  End Site
                  {
                    OFFSET -1.78271 -1.18214 1.43049
                  }
                }
              }
              JOINT rIndex1
              {
                OFFSET -7.75947 0.938293 5.60832
                CHANNELS 3 Zrotation Xrotation Yrotation
                JOINT rIndex2
                {
                  OFFSET -2.54057 -0.884171 1.56538
                  CHANNELS 3 Zrotation Xrotation Yrotation
                  End Site
                  {
                    OFFSET -1.62519 -0.234802 1.16502
                  }
                }
              }
              JOINT rMid1
              {
                OFFSET -8.24714 1.18213 3.41376
                CHANNELS 3 Zrotation Xrotation Yrotation
                JOINT rMid2
                {
                  OFFSET -3.10165 -0.590103 1.0647
                  CHANNELS 3 Zrotation Xrotation Yrotation
                  End Site
                  {
                    OFFSET -2.48547 -0.328903 0.83742
                  }
                }
              }
              JOINT rRing1
              {
                OFFSET -8.82822 0.546677 1.51678
                CHANNELS 3 Zrotation Xrotation Yrotation
                JOINT rRing2
                {
                  OFFSET -2.60934 -0.819778 -0.0198488
                  CHANNELS 3 Zrotation Xrotation Yrotation
                  End Site
                  {
                    OFFSET -2.33842 -0.294052 0.168128
                  }
                }
              }
              JOINT rPinky1
              {
                OFFSET -8.27202 -0.0477905 -0.4584
                CHANNELS 3 Zrotation Xrotation Yrotation
                JOINT rPinky2
                {
                  OFFSET -1.82734 -0.647385 -0.700984
                  CHANNELS 3 Zrotation Xrotation Yrotation
                  End Site
                  {
                    OFFSET -1.69225 -0.51767 -0.607171
                  }
                }
              }
            }
          }
        }
      }
      JOINT lCollar
      {
        OFFSET 2.68224 19.2634 -4.8768
        CHANNELS 3 Zrotation Xrotation Yrotation
        JOINT lShldr
        {
          OFFSET 8.77824 -1.95073 1.46304
          CHANNELS 3 Zrotation Xrotation Yrotation
          JOINT lForeArm
          {
            OFFSET 28.1742 -1.7115 0.48768
            CHANNELS 3 Zrotation Xrotation Yrotation
            JOINT lHand
            {
              OFFSET 22.5879 0.773209 7.07136
              CHANNELS 3 Zrotation Xrotation Yrotation
              JOINT lThumb1
              {
                OFFSET 1.2192 -0.487915 3.41376
                CHANNELS 3 Zrotation Xrotation Yrotation
                JOINT lThumb2
                {
                  OFFSET 3.37035 -0.52449 3.41376
                  CHANNELS 3 Zrotation Xrotation Yrotation
                  End Site
                  {
                    OFFSET 1.78271 -1.18214 1.43049
                  }
                }
              }
              JOINT lIndex1
              {
                OFFSET 7.75947 0.938293 5.60832
                CHANNELS 3 Zrotation Xrotation Yrotation
                JOINT lIndex2
                {
                  OFFSET 2.54057 -0.884171 1.56538
                  CHANNELS 3 Zrotation Xrotation Yrotation
                  End Site
                  {
                    OFFSET 1.62519 -0.234802 1.16502
                  }
                }
              }
              JOINT lMid1
              {
                OFFSET 8.24714 1.18213 3.41376
                CHANNELS 3 Zrotation Xrotation Yrotation
                JOINT lMid2
                {
                  OFFSET 3.10165 -0.590103 1.0647
                  CHANNELS 3 Zrotation Xrotation Yrotation
                  End Site
                  {
                    OFFSET 2.48547 -0.328903 0.83742
                  }
                }
              }
              JOINT lRing1
              {
                OFFSET 8.82822 0.546677 1.51678
                CHANNELS 3 Zrotation Xrotation Yrotation
                JOINT lRing2
                {
                  OFFSET 2.60934 -0.819778 -0.0198488
                  CHANNELS 3 Zrotation Xrotation Yrotation
                  End Site
                  {
                    OFFSET 2.33842 -0.294052 0.168128
                  }
                }
              }
              JOINT lPinky1
              {
                OFFSET 8.27202 -0.0477905 -0.4584
                CHANNELS 3 Zrotation Xrotation Yrotation
                JOINT lPinky2
                {
                  OFFSET 1.82734 -0.647385 -0.700984
                  CHANNELS 3 Zrotation Xrotation Yrotation
                  End Site
                  {
                    OFFSET 1.69225 -0.51767 -0.607171
                  }
                }
              }
            }
          }
        }
      }
    }
  }
  JOINT rButtock
  {
    OFFSET -8.77824 4.35084 1.2192
    CHANNELS 3 Zrotation Xrotation Yrotation
    JOINT rThigh
    {
      OFFSET 0 -1.70687 -2.19456
      CHANNELS 3 Zrotation Xrotation Yrotation
      JOINT rShin
      {
        OFFSET 0 -36.8199 0.73152
        CHANNELS 3 Zrotation Xrotation Yrotation
        JOINT rFoot
        {
          OFFSET 0.73152 -45.1104 -5.12064
          CHANNELS 3 Zrotation Xrotation Yrotation
          End Site
          {
            OFFSET -1.1221 -3.69964 12.103
          }
        }
      }
    }
  }
  JOINT lButtock
  {
    OFFSET 8.77824 4.35084 1.2192
    CHANNELS 3 Zrotation Xrotation Yrotation
    JOINT lThigh
    {
      OFFSET 0 -1.70687 -2.19456
      CHANNELS 3 Zrotation Xrotation Yrotation
      JOINT lShin
      {
        OFFSET 0 -36.8199 0.73152
        CHANNELS 3 Zrotation Xrotation Yrotation
        JOINT lFoot
        {
          OFFSET -0.73152 -45.1104 -5.12064
          CHANNELS 3 Zrotation Xrotation Yrotation
          End Site
          {
            OFFSET 1.1221 -3.69964 12.103
          }
        }
      }
    }
  }
}
MOTION
Frames:	4
Frame Time:	0.00833333
1.80259 82.9287 42.6591 -0.5638 -8.378 0.6311 2.96254 16.2712 -1.57599 2.68631 -8.2553 0.200623 -3.01755 -3.32805 -2.78245 6.15509 -12.4694 -3.87468 -0.0 0.0 0.0 -0.0 0.0 0.0 -5.76172e-15 -1.97875e-14 -5.15411e-14 98.3488 36.1784 -26.1578 -27.942 -40.7077 85.2013 -0.215713 -13.1406 -1.88 1.26258e-10 -6.80639e-10 -1.25704e-10 2.19378e-10 -1.17142e-09 -2.16501e-10 1.26266e-10 -6.80643e-10 -1.25704e-10 7.73091 5.47488 0.417314 1.26259e-10 -6.80643e-10 -1.25709e-10 2.90554 0.965183 0.102902 1.26268e-10 -6.80639e-10 -1.25704e-10 10.2786 0.731801 0.0259123 1.26252e-10 -6.80644e-10 -1.25696e-10 2.22167 -0.733487 -0.20892 -5.66887e-15 -1.97704e-14 -5.1597e-14 -85.4275 44.9727 9.24685 27.2794 -43.2181 -89.91 1.70632 -34.3633 5.51454 2.2648e-10 1.89759e-09 2.91639e-10 3.83486e-10 3.33019e-09 5.1031e-10 2.26477e-10 1.89758e-09 2.9165e-10 -7.73091 5.47488 -0.417314 2.26479e-10 1.89757e-09 2.91635e-10 -2.90554 0.965183 -0.102902 2.26479e-10 1.89758e-09 2.91639e-10 -10.2786 0.731801 -0.0259123 2.26487e-10 1.89759e-09 2.91628e-10 -2.22167 -0.733487 0.20892 -2.03217e-16 0.0 -3.88251e-19 11.99 -38.4267 5.14146 -0.605195 43.918 -0.346649 0.0446541 -0.546725 1.26362 2.03217e-16 0.0 3.88251e-19 0.468322 -8.52328 3.72088 5.07118 80.1756 -5.80547 3.13775 26.9963 -11.2378
1.68395 82.2416 45.2764 -0.8078 -8.5132 0.5667 3.56521 16.5132 -1.25889 2.59435 -8.22664 0.325004 -2.91347 -3.60388 -2.8129 5.78535 -12.1862 -4.01192 -0.0 0.0 0.0 -0.0 0.0 0.0 -2.39451e-16 -1.91793e-14 -2.07109e-14 97.532 36.8833 -24.522 -27.9401 -40.718 85.2192 -0.235765 -13.7122 -1.96504 3.35794e-11 -3.05035e-10 -2.01722e-10 5.97135e-11 -5.26935e-10 -3.49038e-10 3.35869e-11 -3.0504e-10 -2.01724e-10 7.73091 5.47488 0.417314 3.35817e-11 -3.0504e-10 -2.01725e-10 2.90554 0.965183 0.102902 3.35916e-11 -3.05037e-10 -2.01722e-10 10.2786 0.731801 0.0259123 3.35756e-11 -3.05043e-10 -2.01712e-10 2.22167 -0.733487 -0.20892 -2.32784e-16 -1.91614e-14 -2.08452e-14 -86.1366 44.9077 9.9674 27.4229 -42.7764 -89.0465 1.71516 -34.4388 5.53021 1.65237e-10 1.27249e-09 1.62188e-10 2.81628e-10 2.23401e-09 2.84823e-10 1.65234e-10 1.27248e-09 1.622e-10 -7.73091 5.47488 -0.417314 1.65236e-10 1.27249e-09 1.6219e-10 -2.90554 0.965183 -0.102902 1.65237e-10 1.27249e-09 1.62186e-10 -10.2786 0.731801 -0.0259123 1.65242e-10 1.27249e-09 1.62175e-10 -2.22167 -0.733487 0.20892 -2.03217e-16 0.0 -3.88251e-19 13.1213 -38.0075 5.92474 -0.697202 46.8421 -0.250835 -0.184933 -3.65613 -0.760215 2.03217e-16 0.0 3.88251e-19 2.58183 -11.1227 4.95809 10.1981 84.6088 -10.8421 2.45051 26.0612 -9.60503
1.57155 81.4597 47.8213 -1.1002 -8.4187 0.4791 4.48677 16.7491 -0.914133 2.43711 -8.24216 0.465421 -2.80511 -3.85453 -2.82429 5.51051 -12.0068 -4.09938 -0.0 0.0 0.0 -0.0 0.0 0.0 2.42776e-14 -1.27304e-14 9.64106e-15 96.5923 37.6663 -22.7277 -27.9348 -40.7457 85.2684 -0.253614 -14.1929 -2.03694 -1.91414e-11 -5.88238e-10 -3.5246e-10 -2.95851e-11 -1.04014e-09 -6.10716e-10 -1.91338e-11 -5.88244e-10 -3.52463e-10 7.73091 5.47488 0.417314 -1.91383e-11 -5.88243e-10 -3.52463e-10 2.90554 0.965183 0.102902 -1.91281e-11 -5.88241e-10 -3.5246e-10 10.2786 0.731801 0.0259123 -1.91438e-11 -5.88248e-10 -3.5245e-10 2.22167 -0.733487 -0.20892 2.42274e-14 -1.27145e-14 9.44227e-15 -86.9217 44.8087 10.8449 27.5355 -42.3828 -88.3087 1.71714 -34.4558 5.53373 1.77349e-10 1.42752e-09 1.41007e-10 3.03643e-10 2.48739e-09 2.48031e-10 1.77347e-10 1.42751e-09 1.41019e-10 -7.73091 5.47488 -0.417314 1.7735e-10 1.42753e-09 1.41013e-10 -2.90554 0.965183 -0.102902 1.77351e-10 1.42751e-09 1.41005e-10 -10.2786 0.731801 -0.0259123 1.77353e-10 1.42752e-09 1.40994e-10 -2.22167 -0.733487 0.20892 -2.03217e-16 0.0 -3.88251e-19 14.5884 -37.3504 6.71826 -0.776209 49.2282 -0.151467 -0.643055 -6.25766 -2.84237 2.03217e-16 0.0 3.88251e-19 5.18211 -13.9898 6.31639 44.8256 88.536 -45.3984 2.01001 25.3782 -8.73011
1.2972 80.486 50.1544 -2.1809 -8.4023 0.5635 6.00719 16.9971 -0.526877 2.16252 -8.31924 0.63644 -2.67819 -4.08011 -2.79266 5.35484 -11.9335 -4.09175 -0.0 0.0 0.0 -0.0 0.0 0.0 9.08781e-14 6.50561e-15 4.52592e-14 95.4858 38.5773 -20.702 -27.9262 -40.7868 85.3439 -0.269344 -14.6115 -2.09971 -1.95229e-12 3.62469e-10 -7.01474e-10 5.037e-12 5.51965e-10 -1.21537e-09 -1.94399e-12 3.62459e-10 -7.01477e-10 7.73091 5.47488 0.417314 -1.94937e-12 3.62465e-10 -7.01478e-10 2.90554 0.965183 0.102902 -1.93941e-12 3.62465e-10 -7.01474e-10 10.2786 0.731801 0.0259123 -1.95432e-12 3.6246e-10 -7.01466e-10 2.22167 -0.733487 -0.20892 9.08139e-14 6.51455e-15 4.50115e-14 -87.8136 44.6472 11.9397 27.6244 -42.0445 -87.686 1.71216 -34.4129 5.52485 3.45496e-10 3.224e-09 3.37603e-10 5.8965e-10 5.57567e-09 5.90932e-10 3.45494e-10 3.224e-09 3.37617e-10 -7.73091 5.47488 -0.417314 3.45498e-10 3.22401e-09 3.37612e-10 -2.90554 0.965183 -0.102902 3.45496e-10 3.224e-09 3.37604e-10 -10.2786 0.731801 -0.0259123 3.45501e-10 3.224e-09 3.37593e-10 -2.22167 -0.733487 0.20892 -2.03217e-16 0.0 -3.88251e-19 16.7327 -36.386 7.62056 -0.832401 50.9305 -0.0571021 -1.30629 -8.1275 -5.1244 2.03217e-16 0.0 3.88251e-19 8.70841 -17.2195 7.91116 160.366 86.6919 -160.892 1.8676 25.1743 -8.96304
